<svg width="33" height="33" viewBox="0 0 33 33" fill="none" xmlns="http://www.w3.org/2000/svg">
<circle cx="16.5" cy="16.5" r="16.5" transform="matrix(1 0 0 -1 0 33)" fill="url(#paint0_linear_130_550)"/>
<path d="M15.8131 18.5204H13.4155C10.9506 18.5204 9.71826 18.5204 9.20213 17.7512C8.686 16.9819 9.20376 15.9169 10.2393 13.7865L15.0192 3.95381C15.674 2.60674 16.0013 1.93321 16.3448 2.00523C16.6881 2.07726 16.6881 2.81948 16.6881 4.30393V11.687C16.6881 12.0799 16.6881 12.2764 16.8162 12.3984C16.9443 12.5204 17.1507 12.5204 17.5631 12.5204H19.9608C22.4257 12.5204 23.658 12.5204 24.1741 13.2895C24.6902 14.0589 24.1725 15.1239 23.1371 17.254L18.3571 27.0869C17.7023 28.434 17.375 29.1075 17.0315 29.0355C16.6881 28.9635 16.6881 28.2212 16.6881 26.7369V19.3537C16.6881 18.9609 16.6881 18.7644 16.56 18.6424C16.4319 18.5204 16.2256 18.5204 15.8131 18.5204Z" fill="#222222"/>
<defs>
<linearGradient id="paint0_linear_130_550" x1="16.5" y1="0" x2="16.5" y2="33" gradientUnits="userSpaceOnUse">
<stop stop-color="#3AFF4E"/>
<stop offset="0.0001" stop-color="#3AFF4E"/>
<stop offset="0.9999" stop-color="#9DFF50"/>
<stop offset="1" stop-opacity="0"/>
</linearGradient>
</defs>
</svg>
