<svg width="33" height="33" viewBox="0 0 33 33" fill="none" xmlns="http://www.w3.org/2000/svg">
<circle cx="16.5" cy="16.5" r="16.5" transform="matrix(1 0 0 -1 0 33)" fill="url(#paint0_linear_142_580)"/>
<path d="M21.25 18C21.6642 18 22 17.6642 22 17.25C22 16.8358 21.6642 16.5 21.25 16.5C20.8358 16.5 20.5 16.8358 20.5 17.25C20.5 17.6642 20.8358 18 21.25 18Z" fill="#222222"/>
<path d="M12.25 18C12.6642 18 13 17.6642 13 17.25C13 16.8358 12.6642 16.5 12.25 16.5C11.8358 16.5 11.5 16.8358 11.5 17.25C11.5 17.6642 11.8358 18 12.25 18Z" fill="#222222"/>
<path d="M22.75 13H10.75C8.68 13 7 14.68 7 16.75V19.75C7 20.71 7.79 21.5 8.75 21.5H24.75C25.71 21.5 26.5 20.71 26.5 19.75V16.75C26.5 14.68 24.82 13 22.75 13ZM12.25 19.5C11.01 19.5 10 18.49 10 17.25C10 16.01 11.01 15 12.25 15C13.49 15 14.5 16.01 14.5 17.25C14.5 18.49 13.49 19.5 12.25 19.5ZM21.25 19.5C20.01 19.5 19 18.49 19 17.25C19 16.01 20.01 15 21.25 15C22.49 15 23.5 16.01 23.5 17.25C23.5 18.49 22.49 19.5 21.25 19.5Z" fill="#222222"/>
<path d="M22.7501 11.5C23.2201 11.5 23.6701 11.58 24.1001 11.7L23.8001 10.21C23.5401 8.93 22.4101 8 21.1001 8H12.3901C11.0801 8 9.95014 8.93 9.69014 10.21L9.39014 11.7C9.82014 11.58 10.2701 11.5 10.7401 11.5H22.7401H22.7501Z" fill="#222222"/>
<path d="M26.2798 12.2799C26.5698 11.9899 26.5698 11.5099 26.2798 11.2199C25.9898 10.9299 25.5098 10.9299 25.2198 11.2199L24.5898 11.8499C25.0798 12.0399 25.5398 12.2999 25.9498 12.6099L26.2798 12.2799Z" fill="#222222"/>
<path d="M7.54994 12.6099C7.95994 12.2899 8.40994 12.0299 8.90994 11.8499L8.27994 11.2199C7.98994 10.9299 7.50994 10.9299 7.21994 11.2199C6.92994 11.5099 6.92994 11.9899 7.21994 12.2799L7.54994 12.6099Z" fill="#222222"/>
<path d="M20.75 24.5H22.75C23.63 24.5 24.35 23.85 24.47 23H19.02C19.14 23.85 19.87 24.5 20.74 24.5H20.75Z" fill="#222222"/>
<path d="M10.7498 24.5H12.7498C13.6298 24.5 14.3498 23.85 14.4698 23H9.02979C9.14979 23.85 9.87978 24.5 10.7498 24.5Z" fill="#222222"/>
<defs>
<linearGradient id="paint0_linear_142_580" x1="16.5" y1="0" x2="16.5" y2="33" gradientUnits="userSpaceOnUse">
<stop stop-color="#3AFF4E"/>
<stop offset="0.0001" stop-color="#3AFF4E"/>
<stop offset="0.9999" stop-color="#9DFF50"/>
<stop offset="1" stop-opacity="0"/>
</linearGradient>
</defs>
</svg>
