<svg width="77" height="74" viewBox="0 0 77 74" fill="none" xmlns="http://www.w3.org/2000/svg">
<path d="M30.8638 62.8763L38.3087 42.4685L18.7519 42.4217C18.4731 42.4215 18.2 42.3454 17.9644 42.2021C17.7287 42.0589 17.5401 41.8544 17.4205 41.6123C17.3009 41.3703 17.2551 41.1006 17.2884 40.8346C17.3218 40.5685 17.4329 40.317 17.6089 40.1092C23.3394 33.3436 29.0761 26.582 34.819 19.8245C37.6741 16.4641 40.5279 13.1028 43.3805 9.74085C43.601 9.48055 43.9103 9.30376 44.2535 9.24187C44.5968 9.17998 44.9518 9.237 45.2554 9.40281C45.5591 9.56861 45.7917 9.83247 45.9121 10.1475C46.0325 10.4626 46.0329 10.8085 45.9131 11.1237L38.4681 31.5315L58.0249 31.5784C58.3006 31.5784 58.5707 31.6526 58.8047 31.7926C59.0387 31.9326 59.2272 32.1329 59.3489 32.3706C59.4706 32.6083 59.5205 32.874 59.4931 33.1376C59.4657 33.4012 59.362 33.6521 59.1938 33.862C53.7009 40.711 47.9084 47.4097 42.0943 54.1339C39.2441 57.4292 36.3879 60.7338 33.3964 64.2592C33.1759 64.5195 32.8666 64.6963 32.5233 64.7582C32.18 64.8201 31.8251 64.763 31.5214 64.5972C31.2178 64.4314 30.9851 64.1676 30.8647 63.8525C30.7443 63.5375 30.744 63.1916 30.8638 62.8763Z" fill="url(#paint0_linear_23_62)"/>
<path d="M27.2116 56.5094C27.5568 56.6879 27.8142 56.9909 27.927 57.3517C28.0398 57.7125 27.9988 58.1016 27.8131 58.4334C27.6274 58.7652 27.3122 59.0126 26.9367 59.121C26.5613 59.2294 26.1564 59.19 25.8111 59.0116C21.0845 56.558 17.2464 52.7807 14.8065 48.1811C12.3665 43.5816 11.4403 38.3776 12.1508 33.2602C12.8613 28.1428 15.1748 23.3542 18.7842 19.5303C22.3935 15.7065 27.1279 13.0284 32.3585 11.8516C32.5491 11.8056 32.7473 11.7965 32.9416 11.8249C33.1358 11.8532 33.3223 11.9185 33.49 12.0169C33.6577 12.1152 33.8034 12.2447 33.9185 12.3978C34.0336 12.5508 34.1159 12.7243 34.1604 12.9083C34.205 13.0922 34.211 13.2828 34.1782 13.469C34.1453 13.6551 34.0741 13.8331 33.9689 13.9926C33.8636 14.1521 33.7264 14.2898 33.5652 14.3978C33.404 14.5057 33.222 14.5817 33.0299 14.6214C28.3831 15.6656 24.177 18.0438 20.9701 21.4401C17.7633 24.8364 15.7076 29.09 15.0761 33.6358C14.4446 38.1817 15.2673 42.8046 17.4348 46.8904C19.6023 50.9762 23.012 54.3315 27.211 56.5106" fill="white"/>
<path d="M49.9429 16.8235C49.5991 16.6421 49.3443 16.3369 49.2347 15.975C49.125 15.6131 49.1695 15.2241 49.3582 14.8937C49.5469 14.5633 49.8645 14.3184 50.2411 14.2131C50.6177 14.1077 51.0224 14.1504 51.3662 14.3318C56.0846 16.8227 59.9005 20.6372 62.3048 25.2663C64.7091 29.8954 65.5874 35.119 64.8227 40.2402C64.058 45.3614 61.6865 50.1368 58.0247 53.9293C54.3629 57.7218 49.5848 60.351 44.3279 61.4663C44.1387 61.5064 43.9431 61.5104 43.7522 61.4779C43.5614 61.4454 43.3791 61.3771 43.2158 61.2769C42.8858 61.0745 42.6531 60.7545 42.5687 60.3872C42.4843 60.0199 42.5551 59.6354 42.7657 59.3184C42.9763 59.0013 43.3093 58.7776 43.6915 58.6965C48.36 57.7038 52.6029 55.3671 55.8543 51.9979C59.1058 48.6286 61.2114 44.387 61.8905 39.8384C62.5696 35.2898 61.7898 30.6503 59.6553 26.5384C57.5207 22.4266 54.1327 19.0377 49.9429 16.8235Z" fill="white"/>
<defs>
<linearGradient id="paint0_linear_23_62" x1="38.3891" y1="9.21753" x2="38.3891" y2="64.7825" gradientUnits="userSpaceOnUse">
<stop stop-color="#9CFF51"/>
<stop offset="1" stop-color="#48FF4F"/>
</linearGradient>
</defs>
</svg>
