<svg width="54" height="56" viewBox="0 0 54 56" fill="none" xmlns="http://www.w3.org/2000/svg">
<path d="M18.9847 53.6588L26.445 33.251L6.84774 33.2042C6.56833 33.204 6.29469 33.1279 6.05855 32.9846C5.82242 32.8414 5.63345 32.6369 5.51357 32.3948C5.39369 32.1528 5.3478 31.8831 5.38122 31.617C5.41464 31.351 5.52601 31.0995 5.7024 30.8917C11.4448 24.126 17.1933 17.3645 22.9481 10.607C25.8091 7.24653 28.6688 3.88531 31.5273 0.523322C31.7482 0.263019 32.0582 0.086227 32.4022 0.0243393C32.7461 -0.0375485 33.1018 0.0194723 33.4061 0.185277C33.7104 0.351081 33.9436 0.61494 34.0642 0.929999C34.1849 1.24506 34.1852 1.59093 34.0651 1.9062L26.6048 22.314L46.2021 22.3608C46.4783 22.3609 46.749 22.4351 46.9835 22.5751C47.2179 22.7151 47.4068 22.9153 47.5288 23.153C47.6507 23.3907 47.7007 23.6564 47.6733 23.92C47.6458 24.1836 47.5419 24.4346 47.3733 24.6444C41.8691 31.4935 36.0646 38.1922 30.2385 44.9164C27.3824 48.2117 24.5203 51.5163 21.5225 55.0417C21.3016 55.302 20.9916 55.4788 20.6476 55.5407C20.3037 55.6025 19.948 55.5455 19.6437 55.3797C19.3394 55.2139 19.1062 54.95 18.9856 54.635C18.8649 54.3199 18.8646 53.9741 18.9847 53.6588Z" fill="url(#paint0_linear_144_585)"/>
<path d="M15.325 47.2918C15.671 47.4703 15.9289 47.7732 16.0419 48.1341C16.155 48.4949 16.1139 48.884 15.9278 49.2158C15.7417 49.5476 15.4258 49.7949 15.0496 49.9033C14.6734 50.0117 14.2677 49.9724 13.9217 49.7939C9.18528 47.3404 5.33919 43.563 2.89423 38.9635C0.449264 34.364 -0.478881 29.1599 0.233059 24.0425C0.944998 18.9251 3.26333 14.1365 6.88017 10.3127C10.497 6.48884 15.2412 3.8107 20.4827 2.63394C20.6736 2.58792 20.8722 2.57884 21.0669 2.60722C21.2616 2.63559 21.4484 2.70087 21.6165 2.79923C21.7845 2.89759 21.9305 3.02707 22.0459 3.18011C22.1612 3.33315 22.2436 3.5067 22.2883 3.69061C22.333 3.87452 22.339 4.06513 22.306 4.2513C22.2731 4.43747 22.2018 4.61549 22.0963 4.77496C21.9909 4.93443 21.8534 5.07216 21.6918 5.18011C21.5302 5.28807 21.3479 5.36409 21.1554 5.40374C16.499 6.44794 12.2841 8.82616 9.07064 12.2224C5.85716 15.6187 3.7972 19.8723 3.16442 24.4182C2.53164 28.964 3.35599 33.5869 5.52797 37.6727C7.69995 41.7585 11.1167 45.1138 15.3244 47.2929" fill="white"/>
<path d="M38.1035 7.60582C37.759 7.42443 37.5037 7.11921 37.3938 6.75731C37.2839 6.39541 37.3285 6.00646 37.5176 5.67604C37.7067 5.34562 38.025 5.10078 38.4023 4.9954C38.7797 4.89002 39.1852 4.93271 39.5298 5.1141C44.2579 7.60508 48.0817 11.4195 50.491 16.0486C52.9002 20.6777 53.7804 25.9013 53.0141 31.0225C52.2478 36.1438 49.8714 40.9192 46.202 44.7117C42.5327 48.5042 37.7447 51.1334 32.4769 52.2486C32.2873 52.2888 32.0913 52.2927 31.9 52.2602C31.7088 52.2278 31.5261 52.1595 31.3624 52.0593C31.0318 51.8569 30.7986 51.5369 30.714 51.1696C30.6294 50.8023 30.7005 50.4178 30.9115 50.1007C31.1225 49.7836 31.4562 49.5599 31.8391 49.4788C36.5174 48.4861 40.769 46.1494 44.0272 42.7802C47.2853 39.411 49.3953 35.1694 50.0758 30.6208C50.7563 26.0721 49.975 21.4327 47.836 17.3208C45.697 13.2089 42.302 9.82 38.1035 7.60582Z" fill="white"/>
<defs>
<linearGradient id="paint0_linear_144_585" x1="26.5256" y1="0" x2="26.5256" y2="55.565" gradientUnits="userSpaceOnUse">
<stop stop-color="#9CFF51"/>
<stop offset="1" stop-color="#48FF4F"/>
</linearGradient>
</defs>
</svg>
