<svg width="65" height="65" viewBox="0 0 65 65" fill="none" xmlns="http://www.w3.org/2000/svg">
<path d="M26.0539 55.2292L32.3385 37.3034L15.8296 37.2622C15.5942 37.2621 15.3637 37.1952 15.1647 37.0694C14.9658 36.9436 14.8066 36.7639 14.7056 36.5513C14.6046 36.3387 14.566 36.1018 14.5941 35.8681C14.6223 35.6345 14.7161 35.4135 14.8647 35.231C19.7021 29.2882 24.5448 23.349 29.3927 17.4134C31.8028 14.4616 34.2119 11.5092 36.6199 8.55611C36.806 8.32747 37.0671 8.17218 37.3569 8.11781C37.6467 8.06345 37.9463 8.11354 38.2026 8.25918C38.459 8.40482 38.6554 8.63659 38.757 8.91333C38.8587 9.19007 38.8589 9.49387 38.7578 9.7708L32.4731 27.6966L48.9821 27.7377C49.2148 27.7377 49.4428 27.8029 49.6404 27.9259C49.8379 28.0489 49.997 28.2248 50.0997 28.4336C50.2024 28.6424 50.2446 28.8757 50.2215 29.1073C50.1983 29.3388 50.1108 29.5592 49.9688 29.7436C45.3319 35.7596 40.4422 41.6437 35.5342 47.55C33.1282 50.4446 30.7171 53.3472 28.1917 56.4438C28.0056 56.6725 27.7445 56.8278 27.4548 56.8821C27.165 56.9365 26.8653 56.8864 26.609 56.7408C26.3527 56.5951 26.1563 56.3634 26.0546 56.0866C25.953 55.8099 25.9527 55.5061 26.0539 55.2292Z" fill="url(#paint0_linear_68_249)"/>
<path d="M22.9709 49.6366C23.2623 49.7934 23.4796 50.0595 23.5748 50.3764C23.67 50.6933 23.6355 51.0351 23.4787 51.3266C23.3219 51.618 23.0558 51.8353 22.7389 51.9305C22.4219 52.0257 22.0802 51.9912 21.7887 51.8344C17.7987 49.6793 14.5587 46.3613 12.499 42.3212C10.4394 38.2811 9.6575 33.71 10.2572 29.2149C10.857 24.7199 12.81 20.5137 15.8568 17.1549C18.9037 13.7962 22.9003 11.4437 27.3157 10.4101C27.4766 10.3697 27.6439 10.3617 27.8079 10.3866C27.9719 10.4116 28.1293 10.4689 28.2709 10.5553C28.4125 10.6417 28.5354 10.7554 28.6326 10.8898C28.7298 11.0243 28.7992 11.1767 28.8368 11.3383C28.8745 11.4998 28.8795 11.6672 28.8518 11.8308C28.824 11.9943 28.764 12.1506 28.6751 12.2907C28.5863 12.4308 28.4704 12.5518 28.3343 12.6466C28.1982 12.7414 28.0446 12.8082 27.8825 12.843C23.9599 13.7602 20.4092 15.8492 17.7021 18.8324C14.995 21.8157 13.2597 25.5519 12.7267 29.5449C12.1936 33.5379 12.888 37.5985 14.7177 41.1874C16.5474 44.7763 19.4258 47.7235 22.9704 49.6376" fill="white"/>
<path d="M42.1596 14.7773C41.8694 14.618 41.6543 14.3499 41.5617 14.032C41.4692 13.7141 41.5067 13.3725 41.666 13.0822C41.8253 12.792 42.0934 12.5769 42.4113 12.4844C42.7292 12.3918 43.0709 12.4293 43.3611 12.5886C47.3442 14.7766 50.5654 18.1272 52.5949 22.1933C54.6245 26.2594 55.366 30.8476 54.7205 35.346C54.0749 39.8444 52.073 44.039 48.9819 47.3703C45.8908 50.7015 41.8573 53.011 37.4197 53.9906C37.2599 54.0259 37.0948 54.0293 36.9337 54.0008C36.7726 53.9722 36.6187 53.9122 36.4808 53.8242C36.2023 53.6465 36.0058 53.3654 35.9346 53.0427C35.8633 52.7201 35.9232 52.3824 36.1009 52.1039C36.2787 51.8254 36.5598 51.6289 36.8824 51.5576C40.8234 50.6857 44.405 48.6331 47.1497 45.6737C49.8945 42.7143 51.672 38.9885 52.2452 34.9931C52.8185 30.9977 52.1603 26.9225 50.3584 23.3107C48.5565 19.6989 45.6965 16.7222 42.1596 14.7773Z" fill="white"/>
<defs>
<linearGradient id="paint0_linear_68_249" x1="32.4064" y1="8.09644" x2="32.4064" y2="56.9035" gradientUnits="userSpaceOnUse">
<stop stop-color="#9CFF51"/>
<stop offset="1" stop-color="#48FF4F"/>
</linearGradient>
</defs>
</svg>
