<svg width="127" height="40" viewBox="0 0 127 40" fill="none" xmlns="http://www.w3.org/2000/svg">
<path d="M49.512 12.248C51.272 12.248 52.816 12.592 54.144 13.28C55.488 13.968 56.52 14.952 57.24 16.232C57.976 17.496 58.344 18.968 58.344 20.648C58.344 22.328 57.976 23.8 57.24 25.064C56.52 26.312 55.488 27.28 54.144 27.968C52.816 28.656 51.272 29 49.512 29H43.656V12.248H49.512ZM49.392 26.144C51.152 26.144 52.512 25.664 53.472 24.704C54.432 23.744 54.912 22.392 54.912 20.648C54.912 18.904 54.432 17.544 53.472 16.568C52.512 15.576 51.152 15.08 49.392 15.08H47.016V26.144H49.392ZM73.2191 22.064C73.2191 22.544 73.1871 22.976 73.1231 23.36H63.4031C63.4831 24.32 63.8191 25.072 64.4111 25.616C65.0031 26.16 65.7311 26.432 66.5951 26.432C67.8431 26.432 68.7311 25.896 69.2591 24.824H72.8831C72.4991 26.104 71.7631 27.16 70.6751 27.992C69.5871 28.808 68.2511 29.216 66.6671 29.216C65.3871 29.216 64.2351 28.936 63.2111 28.376C62.2031 27.8 61.4111 26.992 60.8351 25.952C60.2751 24.912 59.9951 23.712 59.9951 22.352C59.9951 20.976 60.2751 19.768 60.8351 18.728C61.3951 17.688 62.1791 16.888 63.1871 16.328C64.1951 15.768 65.3551 15.488 66.6671 15.488C67.9311 15.488 69.0591 15.76 70.0511 16.304C71.0591 16.848 71.8351 17.624 72.3791 18.632C72.9391 19.624 73.2191 20.768 73.2191 22.064ZM69.7391 21.104C69.7231 20.24 69.4111 19.552 68.8031 19.04C68.1951 18.512 67.4511 18.248 66.5711 18.248C65.7391 18.248 65.0351 18.504 64.4591 19.016C63.8991 19.512 63.5551 20.208 63.4271 21.104H69.7391ZM90.7196 12.248L84.5756 29H80.4956L74.3516 12.248H77.9516L82.5596 25.568L87.1436 12.248H90.7196ZM98.6381 29.216C97.3581 29.216 96.2061 28.936 95.1821 28.376C94.1581 27.8 93.3501 26.992 92.7581 25.952C92.1821 24.912 91.8941 23.712 91.8941 22.352C91.8941 20.992 92.1901 19.792 92.7821 18.752C93.3901 17.712 94.2141 16.912 95.2541 16.352C96.2941 15.776 97.4541 15.488 98.7341 15.488C100.014 15.488 101.174 15.776 102.214 16.352C103.254 16.912 104.07 17.712 104.662 18.752C105.27 19.792 105.574 20.992 105.574 22.352C105.574 23.712 105.262 24.912 104.638 25.952C104.03 26.992 103.198 27.8 102.142 28.376C101.102 28.936 99.9341 29.216 98.6381 29.216ZM98.6381 26.288C99.2461 26.288 99.8141 26.144 100.342 25.856C100.886 25.552 101.318 25.104 101.638 24.512C101.958 23.92 102.118 23.2 102.118 22.352C102.118 21.088 101.782 20.12 101.11 19.448C100.454 18.76 99.6461 18.416 98.6861 18.416C97.7261 18.416 96.9181 18.76 96.2621 19.448C95.6221 20.12 95.3021 21.088 95.3021 22.352C95.3021 23.616 95.6141 24.592 96.2381 25.28C96.8781 25.952 97.6781 26.288 98.6381 26.288ZM111.399 11.24V29H108.039V11.24H111.399ZM118.631 18.464V24.896C118.631 25.344 118.735 25.672 118.943 25.88C119.167 26.072 119.535 26.168 120.047 26.168H121.607V29H119.495C116.663 29 115.247 27.624 115.247 24.872V18.464H113.663V15.704H115.247V12.416H118.631V15.704H121.607V18.464H118.631Z" fill="white"/>
<circle cx="16.5" cy="16.5" r="16.5" transform="matrix(1 0 0 -1 5 37)" fill="url(#paint0_linear_51_2)"/>
<path d="M20.125 23.0001H17.7274C15.2625 23.0001 14.0301 23.0001 13.514 22.2309C12.9979 21.4616 13.5156 20.3966 14.5512 18.2663L19.3311 8.43355C19.9859 7.08648 20.3132 6.41295 20.6567 6.48496C21 6.557 21 7.29921 21 8.78366V16.1668C21 16.5596 21 16.7561 21.1281 16.8781C21.2562 17.0001 21.4626 17.0001 21.875 17.0001H24.2727C26.7376 17.0001 27.9699 17.0001 28.486 17.7693C29.0021 18.5386 28.4844 19.6036 27.449 21.7338L22.669 31.5666C22.0142 32.9138 21.6869 33.5873 21.3434 33.5153C21 33.4433 21 32.7009 21 31.2166V23.8334C21 23.4406 21 23.2441 20.8719 23.1221C20.7438 23.0001 20.5375 23.0001 20.125 23.0001Z" fill="#222222"/>
<defs>
<linearGradient id="paint0_linear_51_2" x1="16.5" y1="0" x2="16.5" y2="33" gradientUnits="userSpaceOnUse">
<stop stop-color="#3AFF4E"/>
<stop offset="0.0001" stop-color="#3AFF4E"/>
<stop offset="0.9999" stop-color="#9DFF50"/>
<stop offset="1" stop-opacity="0"/>
</linearGradient>
</defs>
</svg>
