<svg width="655" height="1077" viewBox="0 0 655 1077" fill="none" xmlns="http://www.w3.org/2000/svg">
<path fill-rule="evenodd" clip-rule="evenodd" d="M635.5 292.403C635.5 128.278 510.396 6 324 6C137.604 6 16 128.278 16 292.403C16 497.095 215.636 891.031 296.036 1041.38C310.349 1068.15 347.571 1068.1 361.795 1041.29C440.861 892.25 635.5 503.873 635.5 292.403ZM477.5 344C477.5 422.075 419.56 490.267 326.5 490.267C233.44 490.267 176 426.075 176 348C176 269.925 233.44 207.534 326.5 207.534C419.56 207.534 477.5 265.925 477.5 344Z" fill="#005909"/>
<path fill-rule="evenodd" clip-rule="evenodd" d="M638.222 280C638.222 125.356 498.933 0 327.111 0C155.289 0 16 125.356 16 280C16 472.925 214.544 866.237 294.414 1016.65C308.637 1043.44 345.851 1043.59 360.252 1016.9C440.412 868.341 638.222 481.348 638.222 280ZM482.667 311.111C482.667 397.022 413.022 466.667 327.111 466.667C241.2 466.667 171.556 397.022 171.556 311.111C171.556 225.2 241.2 155.556 327.111 155.556C413.022 155.556 482.667 225.2 482.667 311.111Z" fill="#24C834"/>
</svg>
