<svg xmlns="http://www.w3.org/2000/svg" xmlns:v="https://svgstorm.com"
viewBox = "0 0 191 186"
width="191"
height="186">
<g fill="None" fill-opacity="0.0" stroke="#D6D6D6" stroke-opacity="0.08" stroke-width="0.3"><path d="
M 0.00 27.00 
C 6.77 17.16 16.17 8.17 25.00 0.00
L 0.00 0.00
L 0.00 27.00 Z"/>
</g>
<g fill="None" fill-opacity="0.0" stroke="#B9B9B9" stroke-opacity="0.13" stroke-width="0.3"><path d="
M 0.00 27.00 
L 0.00 41.00
C 8.13 25.04 22.88 11.70 36.00 0.00
L 25.00 0.00
C 16.17 8.17 6.77 17.16 0.00 27.00 Z"/>
</g>
<g fill="None" fill-opacity="0.0" stroke="#A1A1A1" stroke-opacity="0.18" stroke-width="0.3"><path d="
M 0.00 41.00 
L 0.00 61.00
C 8.78 35.45 30.53 11.60 55.00 0.00
L 36.00 0.00
C 22.88 11.70 8.13 25.04 0.00 41.00 Z"/>
</g>
<g fill="None" fill-opacity="0.0" stroke="#8B8B8B" stroke-opacity="0.23" stroke-width="0.3"><path d="
M 0.00 61.00 
L 0.00 127.00
C 9.34 151.63 27.66 173.39 51.00 186.00
L 68.00 186.00
C 26.79 173.59 -0.03 130.47 2.00 88.00 C 4.03 45.53 35.93 8.95 77.00 0.00
L 55.00 0.00
C 30.53 11.60 8.78 35.45 0.00 61.00 Z"/>
</g>
<g fill="None" fill-opacity="0.0" stroke="#797979" stroke-opacity="0.26" stroke-width="0.3"><path d="
M 68.00 186.00 
L 126.00 186.00
C 156.99 175.59 182.51 149.62 191.00 118.00
L 191.00 69.00
C 181.61 36.30 152.69 7.38 119.00 0.00
L 77.00 0.00
C 35.93 8.95 4.03 45.53 2.00 88.00 C -0.03 130.47 26.79 173.59 68.00 186.00
M 102.00 2.00 
C 150.74 6.72 190.99 45.95 189.00 97.00 C 187.01 148.05 144.45 185.80 94.00 185.00 C 43.55 184.20 3.70 136.29 7.00 88.00 C 10.30 39.71 54.44 -2.60 102.00 2.00 Z"/>
</g>
<g fill="None" fill-opacity="0.0" stroke="#898989" stroke-opacity="0.23" stroke-width="0.3"><path d="
M 191.00 69.00 
L 191.00 51.00
C 181.14 29.98 161.52 10.60 140.00 0.00
L 119.00 0.00
C 152.69 7.38 181.61 36.30 191.00 69.00 Z"/>
</g>
<g fill="None" fill-opacity="0.0" stroke="#A0A0A0" stroke-opacity="0.18" stroke-width="0.3"><path d="
M 191.00 51.00 
L 191.00 32.00
C 182.35 20.24 171.12 9.69 160.00 0.00
L 140.00 0.00
C 161.52 10.60 181.14 29.98 191.00 51.00 Z"/>
</g>
<g fill="None" fill-opacity="0.0" stroke="#B9B9B9" stroke-opacity="0.13" stroke-width="0.3"><path d="
M 191.00 32.00 
L 191.00 20.00
C 185.07 12.92 177.39 6.60 171.00 0.00
L 160.00 0.00
C 171.12 9.69 182.35 20.24 191.00 32.00 Z"/>
</g>
<g fill="None" fill-opacity="0.0" stroke="#D3D3D3" stroke-opacity="0.09" stroke-width="0.3"><path d="
M 191.00 20.00 
L 191.00 0.00
L 171.00 0.00
C 177.39 6.60 185.07 12.92 191.00 20.00 Z"/>
</g>
<g fill="None" fill-opacity="0.0" stroke="#6B6B6B" stroke-opacity="0.29" stroke-width="0.3"><path d="
M 102.00 2.00 
C 54.44 -2.60 10.30 39.71 7.00 88.00 C 3.70 136.29 43.55 184.20 94.00 185.00 C 144.45 185.80 187.01 148.05 189.00 97.00 C 190.99 45.95 150.74 6.72 102.00 2.00
M 85.00 7.00 
C 130.18 -1.46 175.89 32.11 183.98 78.02 C 192.06 123.94 160.10 173.64 111.99 179.99 C 63.88 186.34 18.12 155.00 12.00 106.00 C 5.88 57.00 38.70 15.67 85.00 7.00 Z"/>
</g>
<g fill="None" fill-opacity="0.0" stroke="#606060" stroke-opacity="0.31" stroke-width="0.3"><path d="
M 85.00 7.00 
C 38.70 15.67 5.88 57.00 12.00 106.00 C 18.12 155.00 63.88 186.34 111.99 179.99 C 160.10 173.64 192.06 123.94 183.98 78.02 C 175.89 32.11 130.18 -1.46 85.00 7.00
M 85.00 10.00 
C 113.58 6.03 146.74 18.65 164.70 42.30 C 182.67 65.94 187.16 100.50 175.07 128.07 C 162.98 155.65 137.31 173.28 107.93 176.93 C 78.54 180.57 50.09 168.34 31.75 145.25 C 13.40 122.17 9.19 85.18 20.92 59.92 C 32.66 34.67 55.95 14.04 85.00 10.00 Z"/>
</g>
<g fill="None" fill-opacity="0.0" stroke="#545454" stroke-opacity="0.34" stroke-width="0.3"><path d="
M 85.00 10.00 
C 55.95 14.04 32.66 34.67 20.92 59.92 C 9.19 85.18 13.40 122.17 31.75 145.25 C 50.09 168.34 78.54 180.57 107.93 176.93 C 137.31 173.28 162.98 155.65 175.07 128.07 C 187.16 100.50 182.67 65.94 164.70 42.30 C 146.74 18.65 113.58 6.03 85.00 10.00
M 148.00 34.00 
C 151.66 37.16 154.42 40.36 157.00 44.00
C 201.12 87.69 162.68 163.44 107.00 170.00
C 100.58 170.76 94.02 170.73 88.00 170.00
C 36.67 163.80 5.11 107.29 26.32 60.32 C 47.53 13.36 110.68 1.79 148.00 34.00 Z"/>
</g>
<g fill="None" fill-opacity="0.0" stroke="#F5F6F7" stroke-opacity="0.97" stroke-width="0.3"><path d="
M 88.00 170.00 
C 93.90 169.55 101.17 169.55 107.00 170.00
C 162.68 163.44 201.12 87.69 157.00 44.00
C 153.84 40.87 149.68 36.16 148.00 34.00
C 110.68 1.79 47.53 13.36 26.32 60.32 C 5.11 107.29 36.67 163.80 88.00 170.00
M 124.00 31.00 
C 126.61 31.94 129.44 32.90 132.00 34.00
C 135.07 35.32 136.70 36.85 139.00 39.00
C 150.90 50.11 160.23 60.95 163.00 77.00
C 163.89 80.05 164.93 82.20 165.00 86.00
C 166.56 96.92 165.49 107.33 161.00 117.00
C 160.63 118.31 160.43 119.67 160.00 121.00
C 159.24 123.37 158.26 124.17 157.00 126.00
C 155.12 129.60 152.51 132.82 150.00 136.00
C 147.11 139.66 143.61 143.15 140.00 146.00
C 138.00 147.58 136.18 148.80 134.00 150.00
C 132.59 151.03 131.74 152.12 130.00 153.00
C 128.09 154.31 127.41 155.19 125.00 156.00
C 122.80 156.74 120.28 157.44 118.00 158.00
C 109.03 161.56 98.75 163.14 89.00 161.00
C 88.00 161.00 87.00 161.03 86.00 161.00
C 81.94 160.86 79.27 159.41 76.00 158.00
C 74.62 157.41 73.19 156.61 72.00 156.00
C 66.55 154.13 60.72 151.08 56.00 148.00
C 46.07 141.53 34.83 127.22 33.00 116.00
C 32.92 115.51 33.00 115.00 33.00 115.00
C 28.85 112.03 29.10 101.94 29.00 97.00
C 28.95 94.34 28.95 91.66 29.00 89.00
C 29.07 85.38 29.41 82.43 30.00 79.00
C 30.61 75.49 31.63 72.93 33.00 70.00
C 35.02 65.69 36.99 61.30 39.00 57.00
C 43.32 47.76 54.05 38.33 63.00 34.00
C 66.99 32.07 70.70 30.20 75.00 29.00
C 80.54 26.63 85.44 25.25 92.00 25.00
C 95.63 24.86 99.37 24.86 103.00 25.00
C 111.38 25.32 117.37 27.19 124.00 31.00 Z"/>
</g>
<g fill="None" fill-opacity="0.0" stroke="#79AAD9" stroke-opacity="1.00" stroke-width="0.3"><path d="
M 75.00 29.00 
C 80.27 27.53 86.98 25.72 92.00 25.00
C 85.44 25.25 80.54 26.63 75.00 29.00 Z"/>
</g>
<g fill="None" fill-opacity="0.0" stroke="#015EB8" stroke-opacity="1.00" stroke-width="0.3"><path d="
M 75.00 29.00 
C 70.70 30.20 66.99 32.07 63.00 34.00
C 54.60 39.53 44.41 48.35 39.00 57.00
C 36.99 61.30 35.02 65.69 33.00 70.00
C 32.13 72.91 31.93 76.05 31.00 79.00
C 31.76 83.15 29.57 85.85 29.00 89.00
C 28.95 91.66 28.95 94.34 29.00 97.00
C 29.54 102.60 31.90 109.13 33.00 115.00
C 33.00 115.00 32.92 115.51 33.00 116.00
C 37.56 119.50 38.05 128.97 42.77 133.23 C 47.49 137.49 50.88 144.08 56.00 148.00
C 60.72 151.08 66.55 154.13 72.00 156.00
C 73.50 156.52 74.90 157.56 76.00 158.00
C 78.93 159.17 82.89 159.02 86.00 160.00
C 92.61 159.40 99.37 160.45 106.00 160.00
C 110.02 159.73 114.10 158.95 118.00 158.00
C 120.28 157.44 122.80 156.74 125.00 156.00
C 126.09 155.39 126.67 154.60 128.00 154.00
C 129.94 152.78 131.79 151.22 134.00 150.00
C 136.18 148.80 138.00 147.58 140.00 146.00
C 143.23 143.01 147.06 139.18 150.00 136.00
C 152.51 132.82 155.12 129.60 157.00 126.00
C 157.85 124.37 159.38 122.33 160.00 121.00
C 160.43 119.67 160.63 118.31 161.00 117.00
C 163.41 108.46 165.00 100.23 165.00 91.00
C 164.61 86.97 163.76 81.40 163.00 77.00
C 160.23 60.95 150.90 50.11 139.00 39.00
C 136.90 37.44 134.04 35.11 132.00 34.00
C 129.44 32.90 126.61 31.94 124.00 31.00
C 117.35 28.61 109.75 25.82 103.00 25.00
C 99.37 24.86 95.63 24.86 92.00 25.00
C 86.98 25.72 80.27 27.53 75.00 29.00 Z"/>
</g>
<g fill="None" fill-opacity="0.0" stroke="#87B2DE" stroke-opacity="1.00" stroke-width="0.3"><path d="
M 124.00 31.00 
C 117.37 27.19 111.38 25.32 103.00 25.00
C 109.75 25.82 117.35 28.61 124.00 31.00 Z"/>
</g>
<g fill="None" fill-opacity="0.0" stroke="#91B9E0" stroke-opacity="1.00" stroke-width="0.3"><path d="
M 39.00 57.00 
C 44.41 48.35 54.60 39.53 63.00 34.00
C 54.05 38.33 43.32 47.76 39.00 57.00 Z"/>
</g>
<g fill="None" fill-opacity="0.0" stroke="#B5D0EA" stroke-opacity="1.00" stroke-width="0.3"><path d="
M 139.00 39.00 
C 136.70 36.85 135.07 35.32 132.00 34.00
C 134.04 35.11 136.90 37.44 139.00 39.00 Z"/>
</g>
<g fill="None" fill-opacity="0.0" stroke="#BFBFBF" stroke-opacity="0.69" stroke-width="0.3"><path d="
M 157.00 44.00 
C 154.42 40.36 151.66 37.16 148.00 34.00
C 149.68 36.16 153.84 40.87 157.00 44.00 Z"/>
</g>
<g fill="None" fill-opacity="0.0" stroke="#A2C4E5" stroke-opacity="1.00" stroke-width="0.3"><path d="
M 30.00 79.00 
C 30.04 78.87 31.00 79.00 31.00 79.00
C 31.93 76.05 32.13 72.91 33.00 70.00
C 31.63 72.93 30.61 75.49 30.00 79.00 Z"/>
</g>
<g fill="None" fill-opacity="0.0" stroke="#4A8BCC" stroke-opacity="1.00" stroke-width="0.3"><path d="
M 165.00 91.00 
C 165.00 89.33 165.03 87.67 165.00 86.00
C 164.93 82.20 163.89 80.05 163.00 77.00
C 163.76 81.40 164.61 86.97 165.00 91.00 Z"/>
</g>
<g fill="None" fill-opacity="0.0" stroke="#649BD4" stroke-opacity="1.00" stroke-width="0.3"><path d="
M 29.00 89.00 
C 29.57 85.85 31.76 83.15 31.00 79.00
C 31.00 79.00 30.04 78.87 30.00 79.00
C 29.41 82.43 29.07 85.38 29.00 89.00 Z"/>
</g>
<g fill="None" fill-opacity="0.0" stroke="#8DB7DF" stroke-opacity="1.00" stroke-width="0.3"><path d="
M 165.00 91.00 
C 165.00 100.23 163.41 108.46 161.00 117.00
C 165.49 107.33 166.56 96.92 165.00 86.00
C 165.03 87.67 165.00 89.33 165.00 91.00 Z"/>
</g>
<g fill="None" fill-opacity="0.0" stroke="#83B0DC" stroke-opacity="1.00" stroke-width="0.3"><path d="
M 33.00 115.00 
C 31.90 109.13 29.54 102.60 29.00 97.00
C 29.10 101.94 28.85 112.03 33.00 115.00 Z"/>
</g>
<g fill="None" fill-opacity="0.0" stroke="#7CACDA" stroke-opacity="1.00" stroke-width="0.3"><path d="
M 56.00 148.00 
C 50.88 144.08 47.49 137.49 42.77 133.23 C 38.05 128.97 37.56 119.50 33.00 116.00
C 34.83 127.22 46.07 141.53 56.00 148.00 Z"/>
</g>
<g fill="None" fill-opacity="0.0" stroke="#898989" stroke-opacity="0.23" stroke-width="0.3"><path d="
M 126.00 186.00 
L 143.00 186.00
C 162.83 175.77 180.02 158.20 191.00 138.00
L 191.00 118.00
C 182.51 149.62 156.99 175.59 126.00 186.00 Z"/>
</g>
<g fill="None" fill-opacity="0.0" stroke="#A7C7E6" stroke-opacity="1.00" stroke-width="0.3"><path d="
M 157.00 126.00 
C 158.26 124.17 159.24 123.37 160.00 121.00
C 159.38 122.33 157.85 124.37 157.00 126.00 Z"/>
</g>
<g fill="None" fill-opacity="0.0" stroke="#A1A1A1" stroke-opacity="0.18" stroke-width="0.3"><path d="
M 0.00 147.00 
C 9.30 162.66 20.35 175.55 35.00 186.00
L 51.00 186.00
C 27.66 173.39 9.34 151.63 0.00 127.00
L 0.00 147.00 Z"/>
</g>
<g fill="None" fill-opacity="0.0" stroke="#3881C7" stroke-opacity="1.00" stroke-width="0.3"><path d="
M 140.00 146.00 
C 143.61 143.15 147.11 139.66 150.00 136.00
C 147.06 139.18 143.23 143.01 140.00 146.00 Z"/>
</g>
<g fill="None" fill-opacity="0.0" stroke="#9E9E9E" stroke-opacity="0.19" stroke-width="0.3"><path d="
M 143.00 186.00 
L 157.00 186.00
C 170.61 178.47 181.12 163.44 191.00 153.00
L 191.00 138.00
C 180.02 158.20 162.83 175.77 143.00 186.00 Z"/>
</g>
<g fill="None" fill-opacity="0.0" stroke="#BFBFBF" stroke-opacity="0.13" stroke-width="0.3"><path d="
M 0.00 169.00 
C 5.72 174.06 9.68 181.61 16.00 186.00
L 35.00 186.00
C 20.35 175.55 9.30 162.66 0.00 147.00
L 0.00 169.00 Z"/>
</g>
<g fill="None" fill-opacity="0.0" stroke="#508FCE" stroke-opacity="1.00" stroke-width="0.3"><path d="
M 128.00 154.00 
C 128.68 153.69 129.35 153.33 130.00 153.00
C 131.74 152.12 132.59 151.03 134.00 150.00
C 131.79 151.22 129.94 152.78 128.00 154.00 Z"/>
</g>
<g fill="None" fill-opacity="0.0" stroke="#A9C9E7" stroke-opacity="1.00" stroke-width="0.3"><path d="
M 128.00 154.00 
C 126.67 154.60 126.09 155.39 125.00 156.00
C 127.41 155.19 128.09 154.31 130.00 153.00
C 129.35 153.33 128.68 153.69 128.00 154.00 Z"/>
</g>
<g fill="None" fill-opacity="0.0" stroke="#B7B7B7" stroke-opacity="0.14" stroke-width="0.3"><path d="
M 157.00 186.00 
L 175.00 186.00
C 180.47 182.29 185.56 173.34 191.00 172.00
L 191.00 153.00
C 181.12 163.44 170.61 178.47 157.00 186.00 Z"/>
</g>
<g fill="None" fill-opacity="0.0" stroke="#5391CF" stroke-opacity="1.00" stroke-width="0.3"><path d="
M 76.00 158.00 
C 74.90 157.56 73.50 156.52 72.00 156.00
C 73.19 156.61 74.62 157.41 76.00 158.00 Z"/>
</g>
<g fill="None" fill-opacity="0.0" stroke="#9ABFE3" stroke-opacity="1.00" stroke-width="0.3"><path d="
M 86.00 161.00 
C 85.75 160.73 86.00 160.00 86.00 160.00
C 82.89 159.02 78.93 159.17 76.00 158.00
C 79.27 159.41 81.94 160.86 86.00 161.00 Z"/>
</g>
<g fill="None" fill-opacity="0.0" stroke="#9BBFE3" stroke-opacity="1.00" stroke-width="0.3"><path d="
M 106.00 160.00 
C 100.89 160.92 94.78 161.00 89.00 161.00
C 98.75 163.14 109.03 161.56 118.00 158.00
C 114.10 158.95 110.02 159.73 106.00 160.00 Z"/>
</g>
<g fill="None" fill-opacity="0.0" stroke="#3A81C7" stroke-opacity="1.00" stroke-width="0.3"><path d="
M 86.00 161.00 
C 87.00 161.03 88.00 161.00 89.00 161.00
C 94.78 161.00 100.89 160.92 106.00 160.00
C 99.37 160.45 92.61 159.40 86.00 160.00
C 86.00 160.00 85.75 160.73 86.00 161.00 Z"/>
</g>
<g fill="None" fill-opacity="0.0" stroke="#E0E0E0" stroke-opacity="0.06" stroke-width="0.3"><path d="
M 0.00 186.00 
L 16.00 186.00
C 9.68 181.61 5.72 174.06 0.00 169.00
L 0.00 186.00 Z"/>
</g>
<g fill="None" fill-opacity="0.0" stroke="#D6D6D6" stroke-opacity="0.77" stroke-width="0.3"><path d="
M 88.00 170.00 
C 94.02 170.73 100.58 170.76 107.00 170.00
C 101.17 169.55 93.90 169.55 88.00 170.00 Z"/>
</g>
<g fill="None" fill-opacity="0.0" stroke="#D6D6D6" stroke-opacity="0.08" stroke-width="0.3"><path d="
M 175.00 186.00 
L 191.00 186.00
L 191.00 172.00
C 185.56 173.34 180.47 182.29 175.00 186.00 Z"/>
</g>
<g fill="#D6D6D6" fill-opacity="0.08" stroke="None">
<path d="
M 0.00 27.00 
C 6.77 17.16 16.17 8.17 25.00 0.00
L 0.00 0.00
L 0.00 27.00 Z"/>
</g>
<g fill="#B9B9B9" fill-opacity="0.13" stroke="None">
<path d="
M 0.00 27.00 
L 0.00 41.00
C 8.13 25.04 22.88 11.70 36.00 0.00
L 25.00 0.00
C 16.17 8.17 6.77 17.16 0.00 27.00 Z"/>
</g>
<g fill="#A1A1A1" fill-opacity="0.18" stroke="None">
<path d="
M 0.00 41.00 
L 0.00 61.00
C 8.78 35.45 30.53 11.60 55.00 0.00
L 36.00 0.00
C 22.88 11.70 8.13 25.04 0.00 41.00 Z"/>
</g>
<g fill="#8B8B8B" fill-opacity="0.23" stroke="None">
<path d="
M 0.00 61.00 
L 0.00 127.00
C 9.34 151.63 27.66 173.39 51.00 186.00
L 68.00 186.00
C 26.79 173.59 -0.03 130.47 2.00 88.00 C 4.03 45.53 35.93 8.95 77.00 0.00
L 55.00 0.00
C 30.53 11.60 8.78 35.45 0.00 61.00 Z"/>
</g>
<g fill="#797979" fill-opacity="0.26" stroke="None">
<path d="
M 68.00 186.00 
L 126.00 186.00
C 156.99 175.59 182.51 149.62 191.00 118.00
L 191.00 69.00
C 181.61 36.30 152.69 7.38 119.00 0.00
L 77.00 0.00
C 35.93 8.95 4.03 45.53 2.00 88.00 C -0.03 130.47 26.79 173.59 68.00 186.00
M 102.00 2.00 
C 150.74 6.72 190.99 45.95 189.00 97.00 C 187.01 148.05 144.45 185.80 94.00 185.00 C 43.55 184.20 3.70 136.29 7.00 88.00 C 10.30 39.71 54.44 -2.60 102.00 2.00 Z"/>
</g>
<g fill="#898989" fill-opacity="0.23" stroke="None">
<path d="
M 191.00 69.00 
L 191.00 51.00
C 181.14 29.98 161.52 10.60 140.00 0.00
L 119.00 0.00
C 152.69 7.38 181.61 36.30 191.00 69.00 Z"/>
</g>
<g fill="#A0A0A0" fill-opacity="0.18" stroke="None">
<path d="
M 191.00 51.00 
L 191.00 32.00
C 182.35 20.24 171.12 9.69 160.00 0.00
L 140.00 0.00
C 161.52 10.60 181.14 29.98 191.00 51.00 Z"/>
</g>
<g fill="#B9B9B9" fill-opacity="0.13" stroke="None">
<path d="
M 191.00 32.00 
L 191.00 20.00
C 185.07 12.92 177.39 6.60 171.00 0.00
L 160.00 0.00
C 171.12 9.69 182.35 20.24 191.00 32.00 Z"/>
</g>
<g fill="#D3D3D3" fill-opacity="0.09" stroke="None">
<path d="
M 191.00 20.00 
L 191.00 0.00
L 171.00 0.00
C 177.39 6.60 185.07 12.92 191.00 20.00 Z"/>
</g>
<g fill="#6B6B6B" fill-opacity="0.29" stroke="None">
<path d="
M 102.00 2.00 
C 54.44 -2.60 10.30 39.71 7.00 88.00 C 3.70 136.29 43.55 184.20 94.00 185.00 C 144.45 185.80 187.01 148.05 189.00 97.00 C 190.99 45.95 150.74 6.72 102.00 2.00
M 85.00 7.00 
C 130.18 -1.46 175.89 32.11 183.98 78.02 C 192.06 123.94 160.10 173.64 111.99 179.99 C 63.88 186.34 18.12 155.00 12.00 106.00 C 5.88 57.00 38.70 15.67 85.00 7.00 Z"/>
</g>
<g fill="#606060" fill-opacity="0.31" stroke="None">
<path d="
M 85.00 7.00 
C 38.70 15.67 5.88 57.00 12.00 106.00 C 18.12 155.00 63.88 186.34 111.99 179.99 C 160.10 173.64 192.06 123.94 183.98 78.02 C 175.89 32.11 130.18 -1.46 85.00 7.00
M 85.00 10.00 
C 113.58 6.03 146.74 18.65 164.70 42.30 C 182.67 65.94 187.16 100.50 175.07 128.07 C 162.98 155.65 137.31 173.28 107.93 176.93 C 78.54 180.57 50.09 168.34 31.75 145.25 C 13.40 122.17 9.19 85.18 20.92 59.92 C 32.66 34.67 55.95 14.04 85.00 10.00 Z"/>
</g>
<g fill="#545454" fill-opacity="0.34" stroke="None">
<path d="
M 85.00 10.00 
C 55.95 14.04 32.66 34.67 20.92 59.92 C 9.19 85.18 13.40 122.17 31.75 145.25 C 50.09 168.34 78.54 180.57 107.93 176.93 C 137.31 173.28 162.98 155.65 175.07 128.07 C 187.16 100.50 182.67 65.94 164.70 42.30 C 146.74 18.65 113.58 6.03 85.00 10.00
M 148.00 34.00 
C 151.66 37.16 154.42 40.36 157.00 44.00
C 201.12 87.69 162.68 163.44 107.00 170.00
C 100.58 170.76 94.02 170.73 88.00 170.00
C 36.67 163.80 5.11 107.29 26.32 60.32 C 47.53 13.36 110.68 1.79 148.00 34.00 Z"/>
</g>
<g fill="#F5F6F7" fill-opacity="0.97" stroke="None">
<path d="
M 88.00 170.00 
C 93.90 169.55 101.17 169.55 107.00 170.00
C 162.68 163.44 201.12 87.69 157.00 44.00
C 153.84 40.87 149.68 36.16 148.00 34.00
C 110.68 1.79 47.53 13.36 26.32 60.32 C 5.11 107.29 36.67 163.80 88.00 170.00
M 124.00 31.00 
C 126.61 31.94 129.44 32.90 132.00 34.00
C 135.07 35.32 136.70 36.85 139.00 39.00
C 150.90 50.11 160.23 60.95 163.00 77.00
C 163.89 80.05 164.93 82.20 165.00 86.00
C 166.56 96.92 165.49 107.33 161.00 117.00
C 160.63 118.31 160.43 119.67 160.00 121.00
C 159.24 123.37 158.26 124.17 157.00 126.00
C 155.12 129.60 152.51 132.82 150.00 136.00
C 147.11 139.66 143.61 143.15 140.00 146.00
C 138.00 147.58 136.18 148.80 134.00 150.00
C 132.59 151.03 131.74 152.12 130.00 153.00
C 128.09 154.31 127.41 155.19 125.00 156.00
C 122.80 156.74 120.28 157.44 118.00 158.00
C 109.03 161.56 98.75 163.14 89.00 161.00
C 88.00 161.00 87.00 161.03 86.00 161.00
C 81.94 160.86 79.27 159.41 76.00 158.00
C 74.62 157.41 73.19 156.61 72.00 156.00
C 66.55 154.13 60.72 151.08 56.00 148.00
C 46.07 141.53 34.83 127.22 33.00 116.00
C 32.92 115.51 33.00 115.00 33.00 115.00
C 28.85 112.03 29.10 101.94 29.00 97.00
C 28.95 94.34 28.95 91.66 29.00 89.00
C 29.07 85.38 29.41 82.43 30.00 79.00
C 30.61 75.49 31.63 72.93 33.00 70.00
C 35.02 65.69 36.99 61.30 39.00 57.00
C 43.32 47.76 54.05 38.33 63.00 34.00
C 66.99 32.07 70.70 30.20 75.00 29.00
C 80.54 26.63 85.44 25.25 92.00 25.00
C 95.63 24.86 99.37 24.86 103.00 25.00
C 111.38 25.32 117.37 27.19 124.00 31.00 Z"/>
</g>
<g fill="#79AAD9" fill-opacity="1.00" stroke="None">
<path d="
M 75.00 29.00 
C 80.27 27.53 86.98 25.72 92.00 25.00
C 85.44 25.25 80.54 26.63 75.00 29.00 Z"/>
</g>
<g fill="#015EB8" fill-opacity="1.00" stroke="None">
<path d="
M 75.00 29.00 
C 70.70 30.20 66.99 32.07 63.00 34.00
C 54.60 39.53 44.41 48.35 39.00 57.00
C 36.99 61.30 35.02 65.69 33.00 70.00
C 32.13 72.91 31.93 76.05 31.00 79.00
C 31.76 83.15 29.57 85.85 29.00 89.00
C 28.95 91.66 28.95 94.34 29.00 97.00
C 29.54 102.60 31.90 109.13 33.00 115.00
C 33.00 115.00 32.92 115.51 33.00 116.00
C 37.56 119.50 38.05 128.97 42.77 133.23 C 47.49 137.49 50.88 144.08 56.00 148.00
C 60.72 151.08 66.55 154.13 72.00 156.00
C 73.50 156.52 74.90 157.56 76.00 158.00
C 78.93 159.17 82.89 159.02 86.00 160.00
C 92.61 159.40 99.37 160.45 106.00 160.00
C 110.02 159.73 114.10 158.95 118.00 158.00
C 120.28 157.44 122.80 156.74 125.00 156.00
C 126.09 155.39 126.67 154.60 128.00 154.00
C 129.94 152.78 131.79 151.22 134.00 150.00
C 136.18 148.80 138.00 147.58 140.00 146.00
C 143.23 143.01 147.06 139.18 150.00 136.00
C 152.51 132.82 155.12 129.60 157.00 126.00
C 157.85 124.37 159.38 122.33 160.00 121.00
C 160.43 119.67 160.63 118.31 161.00 117.00
C 163.41 108.46 165.00 100.23 165.00 91.00
C 164.61 86.97 163.76 81.40 163.00 77.00
C 160.23 60.95 150.90 50.11 139.00 39.00
C 136.90 37.44 134.04 35.11 132.00 34.00
C 129.44 32.90 126.61 31.94 124.00 31.00
C 117.35 28.61 109.75 25.82 103.00 25.00
C 99.37 24.86 95.63 24.86 92.00 25.00
C 86.98 25.72 80.27 27.53 75.00 29.00 Z"/>
</g>
<g fill="#87B2DE" fill-opacity="1.00" stroke="None">
<path d="
M 124.00 31.00 
C 117.37 27.19 111.38 25.32 103.00 25.00
C 109.75 25.82 117.35 28.61 124.00 31.00 Z"/>
</g>
<g fill="#91B9E0" fill-opacity="1.00" stroke="None">
<path d="
M 39.00 57.00 
C 44.41 48.35 54.60 39.53 63.00 34.00
C 54.05 38.33 43.32 47.76 39.00 57.00 Z"/>
</g>
<g fill="#B5D0EA" fill-opacity="1.00" stroke="None">
<path d="
M 139.00 39.00 
C 136.70 36.85 135.07 35.32 132.00 34.00
C 134.04 35.11 136.90 37.44 139.00 39.00 Z"/>
</g>
<g fill="#BFBFBF" fill-opacity="0.69" stroke="None">
<path d="
M 157.00 44.00 
C 154.42 40.36 151.66 37.16 148.00 34.00
C 149.68 36.16 153.84 40.87 157.00 44.00 Z"/>
</g>
<g fill="#A2C4E5" fill-opacity="1.00" stroke="None">
<path d="
M 30.00 79.00 
C 30.04 78.87 31.00 79.00 31.00 79.00
C 31.93 76.05 32.13 72.91 33.00 70.00
C 31.63 72.93 30.61 75.49 30.00 79.00 Z"/>
</g>
<g fill="#4A8BCC" fill-opacity="1.00" stroke="None">
<path d="
M 165.00 91.00 
C 165.00 89.33 165.03 87.67 165.00 86.00
C 164.93 82.20 163.89 80.05 163.00 77.00
C 163.76 81.40 164.61 86.97 165.00 91.00 Z"/>
</g>
<g fill="#649BD4" fill-opacity="1.00" stroke="None">
<path d="
M 29.00 89.00 
C 29.57 85.85 31.76 83.15 31.00 79.00
C 31.00 79.00 30.04 78.87 30.00 79.00
C 29.41 82.43 29.07 85.38 29.00 89.00 Z"/>
</g>
<g fill="#8DB7DF" fill-opacity="1.00" stroke="None">
<path d="
M 165.00 91.00 
C 165.00 100.23 163.41 108.46 161.00 117.00
C 165.49 107.33 166.56 96.92 165.00 86.00
C 165.03 87.67 165.00 89.33 165.00 91.00 Z"/>
</g>
<g fill="#83B0DC" fill-opacity="1.00" stroke="None">
<path d="
M 33.00 115.00 
C 31.90 109.13 29.54 102.60 29.00 97.00
C 29.10 101.94 28.85 112.03 33.00 115.00 Z"/>
</g>
<g fill="#7CACDA" fill-opacity="1.00" stroke="None">
<path d="
M 56.00 148.00 
C 50.88 144.08 47.49 137.49 42.77 133.23 C 38.05 128.97 37.56 119.50 33.00 116.00
C 34.83 127.22 46.07 141.53 56.00 148.00 Z"/>
</g>
<g fill="#898989" fill-opacity="0.23" stroke="None">
<path d="
M 126.00 186.00 
L 143.00 186.00
C 162.83 175.77 180.02 158.20 191.00 138.00
L 191.00 118.00
C 182.51 149.62 156.99 175.59 126.00 186.00 Z"/>
</g>
<g fill="#A7C7E6" fill-opacity="1.00" stroke="None">
<path d="
M 157.00 126.00 
C 158.26 124.17 159.24 123.37 160.00 121.00
C 159.38 122.33 157.85 124.37 157.00 126.00 Z"/>
</g>
<g fill="#A1A1A1" fill-opacity="0.18" stroke="None">
<path d="
M 0.00 147.00 
C 9.30 162.66 20.35 175.55 35.00 186.00
L 51.00 186.00
C 27.66 173.39 9.34 151.63 0.00 127.00
L 0.00 147.00 Z"/>
</g>
<g fill="#3881C7" fill-opacity="1.00" stroke="None">
<path d="
M 140.00 146.00 
C 143.61 143.15 147.11 139.66 150.00 136.00
C 147.06 139.18 143.23 143.01 140.00 146.00 Z"/>
</g>
<g fill="#9E9E9E" fill-opacity="0.19" stroke="None">
<path d="
M 143.00 186.00 
L 157.00 186.00
C 170.61 178.47 181.12 163.44 191.00 153.00
L 191.00 138.00
C 180.02 158.20 162.83 175.77 143.00 186.00 Z"/>
</g>
<g fill="#BFBFBF" fill-opacity="0.13" stroke="None">
<path d="
M 0.00 169.00 
C 5.72 174.06 9.68 181.61 16.00 186.00
L 35.00 186.00
C 20.35 175.55 9.30 162.66 0.00 147.00
L 0.00 169.00 Z"/>
</g>
<g fill="#508FCE" fill-opacity="1.00" stroke="None">
<path d="
M 128.00 154.00 
C 128.68 153.69 129.35 153.33 130.00 153.00
C 131.74 152.12 132.59 151.03 134.00 150.00
C 131.79 151.22 129.94 152.78 128.00 154.00 Z"/>
</g>
<g fill="#A9C9E7" fill-opacity="1.00" stroke="None">
<path d="
M 128.00 154.00 
C 126.67 154.60 126.09 155.39 125.00 156.00
C 127.41 155.19 128.09 154.31 130.00 153.00
C 129.35 153.33 128.68 153.69 128.00 154.00 Z"/>
</g>
<g fill="#B7B7B7" fill-opacity="0.14" stroke="None">
<path d="
M 157.00 186.00 
L 175.00 186.00
C 180.47 182.29 185.56 173.34 191.00 172.00
L 191.00 153.00
C 181.12 163.44 170.61 178.47 157.00 186.00 Z"/>
</g>
<g fill="#5391CF" fill-opacity="1.00" stroke="None">
<path d="
M 76.00 158.00 
C 74.90 157.56 73.50 156.52 72.00 156.00
C 73.19 156.61 74.62 157.41 76.00 158.00 Z"/>
</g>
<g fill="#9ABFE3" fill-opacity="1.00" stroke="None">
<path d="
M 86.00 161.00 
C 85.75 160.73 86.00 160.00 86.00 160.00
C 82.89 159.02 78.93 159.17 76.00 158.00
C 79.27 159.41 81.94 160.86 86.00 161.00 Z"/>
</g>
<g fill="#9BBFE3" fill-opacity="1.00" stroke="None">
<path d="
M 106.00 160.00 
C 100.89 160.92 94.78 161.00 89.00 161.00
C 98.75 163.14 109.03 161.56 118.00 158.00
C 114.10 158.95 110.02 159.73 106.00 160.00 Z"/>
</g>
<g fill="#3A81C7" fill-opacity="1.00" stroke="None">
<path d="
M 86.00 161.00 
C 87.00 161.03 88.00 161.00 89.00 161.00
C 94.78 161.00 100.89 160.92 106.00 160.00
C 99.37 160.45 92.61 159.40 86.00 160.00
C 86.00 160.00 85.75 160.73 86.00 161.00 Z"/>
</g>
<g fill="#E0E0E0" fill-opacity="0.06" stroke="None">
<path d="
M 0.00 186.00 
L 16.00 186.00
C 9.68 181.61 5.72 174.06 0.00 169.00
L 0.00 186.00 Z"/>
</g>
<g fill="#D6D6D6" fill-opacity="0.77" stroke="None">
<path d="
M 88.00 170.00 
C 94.02 170.73 100.58 170.76 107.00 170.00
C 101.17 169.55 93.90 169.55 88.00 170.00 Z"/>
</g>
<g fill="#D6D6D6" fill-opacity="0.08" stroke="None">
<path d="
M 175.00 186.00 
L 191.00 186.00
L 191.00 172.00
C 185.56 173.34 180.47 182.29 175.00 186.00 Z"/>
</g>
</svg>