<svg width="33" height="33" viewBox="0 0 33 33" fill="none" xmlns="http://www.w3.org/2000/svg">
<circle cx="16.5" cy="16.5" r="16.5" transform="matrix(1 0 0 -1 0 33)" fill="url(#paint0_linear_142_561)"/>
<path d="M15.5243 3V6.24594H13.0899C10.8826 6.24594 9.03246 8.09613 9.03246 10.3034V11.9263C9.03246 14.1336 10.4607 15.9513 12.5705 16.5031L20.8802 18.6454C21.3346 18.7753 21.9838 19.5868 21.9838 20.0737V21.6966C21.9838 22.1511 21.6267 22.5081 21.1723 22.5081H13.0574C12.6679 22.5081 12.3758 22.3783 12.2459 22.3134V19.2622H9V22.5081C9 23.6117 9.64919 24.5531 10.4282 25.04C11.1748 25.5593 12.1161 25.7541 13.0574 25.7541H15.4919V29H18.7378V25.7541H21.1723C23.412 25.7541 25.2297 23.9363 25.2297 21.6966V20.0737C25.2297 17.8664 23.8015 16.0487 21.6916 15.4969L13.382 13.3546C12.9276 13.2247 12.2784 12.4132 12.2784 11.9263V10.3034C12.2784 9.84894 12.6355 9.49189 13.0899 9.49189H21.2047C21.5618 9.49189 21.8864 9.62172 22.0162 9.68664V12.7378H25.2622V9.49189C25.2622 8.38826 24.613 7.44694 23.834 6.96005C23.0874 6.4407 22.1461 6.24594 21.2047 6.24594H18.7703V3L15.5243 3Z" fill="#222222"/>
<defs>
<linearGradient id="paint0_linear_142_561" x1="16.5" y1="0" x2="16.5" y2="33" gradientUnits="userSpaceOnUse">
<stop stop-color="#3AFF4E"/>
<stop offset="0.0001" stop-color="#3AFF4E"/>
<stop offset="0.9999" stop-color="#9DFF50"/>
<stop offset="1" stop-opacity="0"/>
</linearGradient>
</defs>
</svg>
