<svg width="33" height="33" viewBox="0 0 33 33" fill="none" xmlns="http://www.w3.org/2000/svg">
<circle cx="16.5" cy="16.5" r="16.5" transform="matrix(1 0 0 -1 0 33)" fill="url(#paint0_linear_130_551)"/>
<path d="M16.5 6C11.7967 6 8 9.685 8 14.25C8 19.75 16.5 28 16.5 28C16.5 28 25 19.75 25 14.25C25 9.685 21.2033 6 16.5 6ZM16.5 8.75C19.645 8.75 22.1667 11.225 22.1667 14.25C22.1667 17.3025 19.645 19.75 16.5 19.75C13.3833 19.75 10.8333 17.3025 10.8333 14.25C10.8333 11.225 13.3833 8.75 16.5 8.75Z" fill="#222222"/>
<defs>
<linearGradient id="paint0_linear_130_551" x1="16.5" y1="0" x2="16.5" y2="33" gradientUnits="userSpaceOnUse">
<stop stop-color="#3AFF4E"/>
<stop offset="0.0001" stop-color="#3AFF4E"/>
<stop offset="0.9999" stop-color="#9DFF50"/>
<stop offset="1" stop-opacity="0"/>
</linearGradient>
</defs>
</svg>
