<svg width="33" height="33" viewBox="0 0 33 33" fill="none" xmlns="http://www.w3.org/2000/svg">
<circle cx="16.5" cy="16.5" r="16.5" transform="matrix(1 0 0 -1 0 33)" fill="url(#paint0_linear_130_549)"/>
<path d="M11.75 18.5V16.5C11.75 15.81 11.19 15.25 10.5 15.25H7C6.59 15.25 6.25 15.59 6.25 16V19C6.25 19.41 6.59 19.75 7 19.75H10.5C11.19 19.75 11.75 19.19 11.75 18.5Z" fill="#222222"/>
<path d="M16.6999 8.10997C15.6299 7.49997 14.2699 7.67997 13.3899 8.54997L12.1899 9.74997H19.5799L16.6999 8.10997Z" fill="#222222"/>
<path d="M22.9998 11.25H9.99979C8.56979 11.25 7.39979 12.35 7.27979 13.75H10.4998C12.0198 13.75 13.2498 14.98 13.2498 16.5V18.5C13.2498 20.02 12.0198 21.25 10.4998 21.25H7.27979C7.40979 22.65 8.56979 23.75 9.99979 23.75H22.9998C24.5198 23.75 25.7498 22.52 25.7498 21V14C25.7498 12.48 24.5198 11.25 22.9998 11.25Z" fill="#222222"/>
<defs>
<linearGradient id="paint0_linear_130_549" x1="16.5" y1="0" x2="16.5" y2="33" gradientUnits="userSpaceOnUse">
<stop stop-color="#3AFF4E"/>
<stop offset="0.0001" stop-color="#3AFF4E"/>
<stop offset="0.9999" stop-color="#9DFF50"/>
<stop offset="1" stop-opacity="0"/>
</linearGradient>
</defs>
</svg>
